# xmcd
#
# Track frame offsets:
#   150
#   11244
#   26963
#   44756
#   60794
#   76215
#   96630
#
# Disc length: 1607 seconds
#
# Revision: 0
# Processed by: cddbd v1.5.1PL2 Copyright (c) Steve Scherf et al.
# Submitted via: GXTranscoder 2.0.1939
#
DISCID=59064507
DTITLE=Wide Awake 2 - Bonus EP - Various
DYEAR=2006
DGENRE=Alternative
TTITLE0=Maplewood - two dark birds
TTITLE1=Salim Nourallah - dreaming
TTITLE2=Downpilot - Am I wrong
TTITLE3=Dirk Darmstaedter - waterloo sunset
TTITLE4=Peter Elkas - walking through a wall of fire
TTITLE5=Christian Kjellvander - to live is to fly
TTITLE6=Ezio - angel song
EXTD=
EXTT0=
EXTT1=
EXTT2=
EXTT3=
EXTT4=
EXTT5=
EXTT6=
PLAYORDER=
